<svg width="8" height="14" viewBox="0 0 8 14" fill="none" xmlns="http://www.w3.org/2000/svg">
<g clip-path="url(#clip0_8_176)">
<path d="M0.320095 7.73499L5.9801 13.385C6.3701 13.775 7.0001 13.785 7.3901 13.395C7.3901 13.395 7.3901 13.395 7.4001 13.385C7.7901 12.995 7.7901 12.365 7.4001 11.975L2.4501 6.97499L7.4001 2.02499C7.7901 1.63499 7.8001 1.00499 7.4001 0.614987C7.0101 0.224987 6.3801 0.214987 5.9901 0.614987C5.9901 0.614987 5.9901 0.614987 5.9801 0.624987L0.320095 6.26499C-0.0899046 6.63499 -0.109905 7.26499 0.260095 7.67499C0.280095 7.69499 0.300095 7.71499 0.320095 7.73499Z" fill="#2E723D"/>
</g>
<defs>
<clipPath id="clip0_8_176">
<rect width="7.7" height="13.37" fill="white" transform="translate(0 0.314941)"/>
</clipPath>
</defs>
</svg>
