<svg width="9" height="14" viewBox="0 0 9 14" fill="none" xmlns="http://www.w3.org/2000/svg">
<g clip-path="url(#clip0_8_178)">
<path d="M8.07981 6.26501L2.41981 0.615013C2.02981 0.225013 1.39981 0.215013 1.00981 0.605013C1.00981 0.605013 1.00981 0.605013 0.999807 0.615013C0.609807 1.00501 0.609807 1.63501 0.999807 2.02501L5.94981 7.02501L0.999807 11.975C0.609807 12.365 0.599807 12.995 0.999807 13.385C1.38981 13.775 2.01981 13.785 2.40981 13.385C2.40981 13.385 2.40981 13.385 2.41981 13.375L8.07981 7.73501C8.48981 7.36501 8.50981 6.73501 8.13981 6.32501C8.11981 6.30501 8.09981 6.28501 8.07981 6.26501Z" fill="#2E723D"/>
</g>
<defs>
<clipPath id="clip0_8_178">
<rect width="7.7" height="13.37" fill="white" transform="matrix(-1 0 0 -1 8.3999 13.6851)"/>
</clipPath>
</defs>
</svg>
