<svg width="60" height="60" viewBox="0 0 60 60" fill="none" xmlns="http://www.w3.org/2000/svg">
<rect width="60" height="60" fill="#111712"/>
<g clip-path="url(#clip0_54_374)">
<path d="M34.6402 30.8398L45.9602 42.1398C46.7402 42.9198 48.0002 42.9398 48.7802 42.1598C48.7802 42.1598 48.7802 42.1598 48.8002 42.1398C49.5802 41.3598 49.5802 40.0998 48.8002 39.3198L38.9002 29.3198L48.8002 19.4198C49.5802 18.6398 49.6002 17.3798 48.8002 16.5998C48.0202 15.8198 46.7602 15.7998 45.9802 16.5998C45.9802 16.5998 45.9802 16.5998 45.9602 16.6198L34.6402 27.8998C33.8202 28.6398 33.7802 29.8998 34.5202 30.7198C34.5602 30.7598 34.6002 30.7998 34.6402 30.8398Z" fill="#2E723D"/>
</g>
<g clip-path="url(#clip1_54_374)">
<path d="M22.6402 30.8398L33.9602 42.1398C34.7402 42.9198 36.0002 42.9398 36.7802 42.1598C36.7802 42.1598 36.7802 42.1598 36.8002 42.1398C37.5802 41.3598 37.5802 40.0998 36.8002 39.3198L26.9002 29.3198L36.8002 19.4198C37.5802 18.6398 37.6002 17.3798 36.8002 16.5998C36.0202 15.8198 34.7602 15.7998 33.9802 16.5998C33.9802 16.5998 33.9802 16.5998 33.9602 16.6198L22.6402 27.8998C21.8202 28.6398 21.7802 29.8998 22.5202 30.7198C22.5602 30.7598 22.6002 30.7998 22.6402 30.8398Z" fill="#2E723D" fill-opacity="0.7"/>
</g>
<g clip-path="url(#clip2_54_374)">
<path d="M10.6402 30.8398L21.9602 42.1398C22.7402 42.9198 24.0002 42.9398 24.7802 42.1598C24.7802 42.1598 24.7802 42.1598 24.8002 42.1398C25.5802 41.3598 25.5802 40.0998 24.8002 39.3198L14.9002 29.3198L24.8002 19.4198C25.5802 18.6398 25.6002 17.3798 24.8002 16.5998C24.0202 15.8198 22.7602 15.7998 21.9802 16.5998C21.9802 16.5998 21.9802 16.5998 21.9602 16.6198L10.6402 27.8998C9.82019 28.6398 9.78019 29.8998 10.5202 30.7198C10.5602 30.7598 10.6002 30.7998 10.6402 30.8398Z" fill="#2E723D" fill-opacity="0.4"/>
</g>
<defs>
<clipPath id="clip0_54_374">
<rect width="15.4" height="26.74" fill="white" transform="translate(34 16)"/>
</clipPath>
<clipPath id="clip1_54_374">
<rect width="15.4" height="26.74" fill="white" transform="translate(22 16)"/>
</clipPath>
<clipPath id="clip2_54_374">
<rect width="15.4" height="26.74" fill="white" transform="translate(10 16)"/>
</clipPath>
</defs>
</svg>
