<svg width="180" height="81" viewBox="0 0 180 81" fill="none" xmlns="http://www.w3.org/2000/svg">
<g clip-path="url(#clip0_54_523)">
<path fill-rule="evenodd" clip-rule="evenodd" d="M71.969 33.4944C69.4906 29.8991 68.1584 25.6432 68.1584 21.295C68.1119 9.52592 77.716 0 89.5663 0C95.2668 0 100.766 2.2432 104.778 6.28403C105.444 6.89861 106.017 7.55928 106.59 8.29677C105.522 8.03557 104.422 7.94339 103.322 7.94339C103.105 7.89729 102.842 7.94339 102.609 7.94339C95.2668 0.87577 83.5869 0.967956 76.3838 8.15849C72.852 11.6308 70.8537 16.3631 70.8537 21.2797C70.8537 24.921 71.9226 28.4856 73.9054 31.5124L71.9536 33.4944H71.969Z" fill="#FCF6D4"/>
<path fill-rule="evenodd" clip-rule="evenodd" d="M105.986 16.4245C105.94 17.2542 105.227 17.9149 104.391 17.8688H104.344C103.461 17.8227 102.842 17.0852 102.888 16.2402V16.1941C102.934 15.3644 103.678 14.7037 104.53 14.7498C105.367 14.7959 106.033 15.5334 105.986 16.4245ZM69.7538 41.1458C69.5834 41.3609 69.5834 41.6682 69.7538 41.8526C69.9242 41.9909 70.1101 42.0216 70.2805 41.9448C73.1927 40.5466 77.6694 38.7336 81.6505 40.8539C84.4853 42.2521 87.5834 43.051 90.7125 43.1739C99.8674 43.1278 107.303 35.7529 107.303 26.6726C107.303 22.5396 108.139 19.4667 111.811 17.3157C110.478 13.8433 107.039 11.6462 103.322 11.8306C100.719 11.7384 98.2409 12.7525 96.4285 14.5962L69.7538 41.1612V41.1458Z" fill="#FCF6D4"/>
<path fill-rule="evenodd" clip-rule="evenodd" d="M0 50.3491H2.88124L10.0843 62.6867L17.3029 50.3491H20.1687V66.6814H17.3029V55.3118L10.58 66.6814H9.55766L2.88124 55.3118V66.6814H0V50.3491Z" fill="#FCF6D4"/>
<path d="M27.8214 50.3491H24.9092V66.6814H27.8214V50.3491Z" fill="#FCF6D4"/>
<path fill-rule="evenodd" clip-rule="evenodd" d="M35.4273 64.2231H41.5305C45.2018 64.2231 47.0607 61.3654 47.0607 58.523C47.0607 55.6805 45.2018 52.8228 41.5305 52.8228H35.4273V64.2385V64.2231ZM41.67 50.3491C47.2465 50.3952 50.0348 54.4821 50.0348 58.5076C50.0348 62.5331 47.2465 66.6354 41.67 66.6661H32.5615V50.3337H41.67V50.3491Z" fill="#FCF6D4"/>
<path fill-rule="evenodd" clip-rule="evenodd" d="M68.1278 54.5282C66.8421 53.3451 64.1932 52.5462 61.8387 52.5462C59.4841 52.5462 57.6407 53.299 57.6407 54.9584C57.6407 58.5997 69.8008 55.6651 69.8008 62.2411C69.8008 65.7134 66.0366 67.1577 62.0556 67.1577C58.8645 67.1577 55.5031 66.2358 53.8301 64.6533L55.4721 62.4101C56.7578 63.7314 59.7165 64.5611 62.2879 64.5611C64.6734 64.5611 66.7492 63.8544 66.7492 62.2411C66.7492 58.4154 54.5891 61.3653 54.5891 54.9123C54.5891 51.3631 58.0435 49.9496 61.7612 49.9496C64.7664 49.9496 67.9574 50.8715 69.6769 52.2696L68.1278 54.5128V54.5282Z" fill="#FCF6D4"/>
<path fill-rule="evenodd" clip-rule="evenodd" d="M73.9209 50.3491H76.7557V60.2284C76.7557 63.0861 79.3581 64.4382 81.976 64.4382C84.5939 64.4382 87.1963 63.0708 87.1963 60.2284V50.3491H90.0311V60.2284C90.0311 64.8838 86.0035 67.2499 81.976 67.2499C77.9484 67.2499 73.9209 64.8838 73.9209 60.2284V50.3491Z" fill="#FCF6D4"/>
<path fill-rule="evenodd" clip-rule="evenodd" d="M94.585 50.3491H97.4507L104.669 62.6867L111.919 50.3491H114.8V66.6814H111.919V55.3118L105.196 66.6814H104.127L97.4507 55.3118V66.6814H94.585V50.3491Z" fill="#FCF6D4"/>
<path fill-rule="evenodd" clip-rule="evenodd" d="M119.525 50.3491H122.407L129.61 62.6867L136.828 50.3491H139.741V66.6814H136.828V55.3118L130.152 66.6814H129.083L122.407 55.3118V66.6814H119.525V50.3491Z" fill="#FCF6D4"/>
<path fill-rule="evenodd" clip-rule="evenodd" d="M159.119 64.2231V66.6814H144.48V50.3491H158.995V52.8074H147.346V57.2938H157.4V59.7521H147.346V64.2231H159.119Z" fill="#FCF6D4"/>
<path fill-rule="evenodd" clip-rule="evenodd" d="M166.152 57.6318H172.394C174.3 57.6318 175.276 56.4487 175.276 55.2657C175.276 54.0826 174.3 52.8535 172.394 52.8535H166.152V57.6318ZM163.271 50.3491H172.921C176.453 50.3491 178.234 52.8074 178.234 55.2657C178.281 57.4628 176.778 59.3987 174.61 59.9211L180 66.6814H176.375L171.511 60.0901H166.152V66.6814H163.271V50.3491Z" fill="#FCF6D4"/>
<path d="M69.3202 74.1946H68.2513L66.6093 78.7117H66.5628L64.9673 74.1946H63.821L62.2255 78.7117H62.179L60.5835 74.1946H59.5146L61.5904 80.0331H62.7832L64.3787 75.562L65.9742 80.0331H67.1205L69.2892 74.1946H69.3202ZM70.2496 80.0331H71.272V74.1946H70.2496V80.0331ZM78.1188 74.1946H77.0964V78.5427L74.0912 74.1946H72.8055V80.0331H73.8279V75.6389H73.8744L76.8795 80.0331H78.1188V74.1946ZM80.6902 77.4365H84.0052V76.5607H80.6902V75.0704H84.4079V74.1946H79.6678V80.0331H84.4079V79.1112H80.6902V77.4365ZM89.5818 80.1099C90.4183 80.1099 90.9914 79.7104 91.3477 79.4031L91.5181 79.2341L91.9983 79.7104C92.2152 79.9255 92.4475 80.0177 92.7573 80.0177H93.4234V79.188H92.8503C92.7109 79.188 92.5869 79.1419 92.494 79.0498L92.1377 78.6964L93.1601 77.8206L92.6334 77.206L91.5646 78.1279L90.4647 77.037C91.1773 76.7297 91.7969 76.3303 91.7969 75.5006C91.7969 74.5326 90.9604 74.0563 90.031 74.0563C89.1016 74.0563 88.2651 74.5326 88.2651 75.5006C88.2651 75.854 88.4045 76.2073 88.7918 76.5915L88.9622 76.7605C88.2496 77.1138 87.63 77.544 87.63 78.4659C87.63 79.5568 88.5594 80.0945 89.5818 80.0945V80.1099ZM89.7986 76.4225L89.5818 76.2073C89.3184 75.9462 89.179 75.7311 89.179 75.5006C89.179 75.1011 89.5353 74.886 90.0155 74.886C90.4957 74.886 90.852 75.1011 90.852 75.5006C90.852 75.9769 90.3718 76.2074 89.7832 76.4225H89.7986ZM90.9449 78.7117L90.8055 78.8039C90.4957 79.0651 90.0465 79.3263 89.5663 79.3263C88.9931 79.3263 88.5439 79.019 88.5439 78.4966C88.5439 77.9743 89.0241 77.667 89.6128 77.4058L90.9449 78.7271V78.7117ZM96.6455 80.0331H100.007C101.2 80.0331 101.866 79.3263 101.866 78.4506C101.866 77.7899 101.463 77.2214 100.89 77.0063V76.9602C101.417 76.6529 101.68 76.2534 101.68 75.6389C101.68 74.7631 100.921 74.1946 99.821 74.1946H96.63V80.0331H96.6455ZM97.6678 76.6068V75.0704H99.6971C100.27 75.0704 100.673 75.3316 100.673 75.8232C100.673 76.3456 100.27 76.6068 99.6971 76.6068H97.6678ZM97.6678 79.1112V77.4826H99.79C100.503 77.4826 100.859 77.836 100.859 78.3123C100.859 78.7578 100.549 79.0959 99.8365 79.0959H97.6678V79.1112ZM104.034 77.4365H107.349V76.5607H104.034V75.0704H107.752V74.1946H103.012V80.0331H107.752V79.1112H104.034V77.4365ZM110.091 77.4365H113.406V76.5607H110.091V75.0704H113.809V74.1946H109.069V80.0331H113.809V79.1112H110.091V77.4365ZM119.246 80.0331H120.392L119.06 77.7438C119.897 77.5748 120.439 76.9602 120.439 75.9922C120.439 74.8553 119.602 74.1946 118.441 74.1946H115.126V80.0331H116.148V77.836H117.96L119.246 80.0331ZM116.148 76.9602V75.0704H118.441C119.06 75.0704 119.417 75.4699 119.417 75.9922C119.417 76.5607 119.06 76.9602 118.441 76.9602H116.148Z" fill="#FCF6D4"/>
<path d="M56.0912 76.6068H0V77.6209H56.0912V76.6068Z" fill="#FCF6D4"/>
<path d="M180 76.6068H123.909V77.6209H180V76.6068Z" fill="#FCF6D4"/>
</g>
<defs>
<clipPath id="clip0_54_523">
<rect width="180" height="80.1099" fill="white"/>
</clipPath>
</defs>
</svg>
