<svg width="9" height="5" viewBox="0 0 9 5" fill="none" xmlns="http://www.w3.org/2000/svg">
<g clip-path="url(#clip0_514_6)">
<path d="M4.99456 4.79007L8.79961 1.11452C9.06226 0.861261 9.069 0.452146 8.80635 0.198884C8.80635 0.198884 8.80635 0.198883 8.79961 0.192389C8.53696 -0.0608727 8.11268 -0.0608727 7.85003 0.192389L4.48273 3.40687L1.1491 0.192389C0.886451 -0.0608728 0.46217 -0.0673667 0.199521 0.192389C-0.0631289 0.445652 -0.0698635 0.854768 0.199521 1.10803C0.199521 1.10803 0.199521 1.10803 0.206255 1.11452L4.00457 4.79007C4.25375 5.05632 4.67803 5.06931 4.95415 4.82904C4.96762 4.81605 4.98109 4.80306 4.99456 4.79007Z" fill="white"/>
</g>
<defs>
<clipPath id="clip0_514_6">
<rect width="5" height="9" fill="white" transform="translate(0 5) rotate(-90)"/>
</clipPath>
</defs>
</svg>
