<svg width="26" height="26" viewBox="0 0 26 26" fill="none" xmlns="http://www.w3.org/2000/svg">
<path fill-rule="evenodd" clip-rule="evenodd" d="M13 26C20.1797 26 26 20.1797 26 13C26 5.8203 20.1797 0 13 0C5.8203 0 0 5.8203 0 13C0 20.1797 5.8203 26 13 26ZM17 13C17 15.2091 15.2091 17 13 17C10.7909 17 9 15.2091 9 13C9 10.7909 10.7909 9 13 9C15.2091 9 17 10.7909 17 13ZM15.6667 13C15.6667 14.4727 14.4727 15.6667 13 15.6667C11.5272 15.6667 10.3333 14.4727 10.3333 13C10.3333 11.5272 11.5272 10.3333 13 10.3333C14.4727 10.3333 15.6667 11.5272 15.6667 13ZM17 8.33333C16.6318 8.33333 16.3333 8.63181 16.3333 9C16.3333 9.36819 16.6318 9.66667 17 9.66667C17.3682 9.66667 17.6667 9.36819 17.6667 9C17.6667 8.63181 17.3682 8.33333 17 8.33333ZM5.66667 12.0667C5.66667 9.82646 5.66667 8.70635 6.10264 7.85071C6.48613 7.09805 7.09805 6.48613 7.85071 6.10264C8.70635 5.66667 9.82646 5.66667 12.0667 5.66667H13.9333C16.1735 5.66667 17.2937 5.66667 18.1493 6.10264C18.9019 6.48613 19.5139 7.09805 19.8973 7.85071C20.3333 8.70635 20.3333 9.82646 20.3333 12.0667V13.9333C20.3333 16.1735 20.3333 17.2937 19.8973 18.1493C19.5139 18.9019 18.9019 19.5139 18.1493 19.8973C17.2937 20.3333 16.1735 20.3333 13.9333 20.3333H12.0667C9.82646 20.3333 8.70635 20.3333 7.85071 19.8973C7.09805 19.5139 6.48613 18.9019 6.10264 18.1493C5.66667 17.2937 5.66667 16.1735 5.66667 13.9333V12.0667ZM12.0667 7H13.9333C15.0755 7 15.8518 7.00104 16.4519 7.05007C17.0365 7.09783 17.3355 7.18439 17.544 7.29065C18.0457 7.54631 18.4537 7.95426 18.7093 8.45603C18.8156 8.66456 18.9022 8.96349 18.9499 9.54805C18.9989 10.1482 19 10.9246 19 12.0667V13.9333C19 15.0755 18.9989 15.8518 18.9499 16.4519C18.9022 17.0365 18.8156 17.3355 18.7093 17.544C18.4537 18.0457 18.0457 18.4537 17.544 18.7093C17.3355 18.8156 17.0365 18.9022 16.4519 18.9499C15.8518 18.9989 15.0755 19 13.9333 19H12.0667C10.9246 19 10.1482 18.9989 9.54805 18.9499C8.96349 18.9022 8.66456 18.8156 8.45603 18.7093C7.95426 18.4537 7.54631 18.0457 7.29065 17.544C7.18439 17.3355 7.09783 17.0365 7.05007 16.4519C7.00104 15.8518 7 15.0755 7 13.9333V12.0667C7 10.9246 7.00104 10.1482 7.05007 9.54805C7.09783 8.96349 7.18439 8.66456 7.29065 8.45603C7.54631 7.95426 7.95426 7.54631 8.45603 7.29065C8.66456 7.18439 8.96349 7.09783 9.54805 7.05007C10.1482 7.00104 10.9246 7 12.0667 7Z" fill="#62B462"/>
</svg>
