<svg width="14" height="10" viewBox="0 0 14 10" fill="none" xmlns="http://www.w3.org/2000/svg">
<g clip-path="url(#clip0_7_113)">
<path fill-rule="evenodd" clip-rule="evenodd" d="M2.33333 0H11.6667C12.2873 0 12.88 0.240909 13.3187 0.663636C13.7527 1.09091 14 1.66818 14 2.27273V7.72727C14 8.33182 13.7527 8.90909 13.3187 9.33636C12.88 9.75909 12.2873 10 11.6667 10H2.33333C1.71267 10 1.12 9.75909 0.681333 9.33636C0.247333 8.90909 0 8.33182 0 7.72727V2.27273C0 1.66818 0.247333 1.09091 0.681333 0.663636C1.12 0.240909 1.71267 0 2.33333 0ZM2.33333 0.909091H11.6667C12.04 0.909091 12.3947 1.05455 12.656 1.30909C12.9173 1.56364 13.0667 1.90909 13.0667 2.27273V7.72727C13.0667 8.09091 12.9173 8.43636 12.656 8.69091C12.3947 8.94546 12.04 9.09091 11.6667 9.09091H2.33333C1.96 9.09091 1.60533 8.94546 1.344 8.69091C1.08267 8.43636 0.933333 8.09091 0.933333 7.72727V2.27273C0.933333 1.90909 1.08267 1.56364 1.344 1.30909C1.60533 1.05455 1.96 0.909091 2.33333 0.909091Z" fill="#2E723D"/>
<path d="M13.3233 1.86818C13.4353 1.81364 13.5613 1.80455 13.6827 1.84091C13.7993 1.88182 13.8973 1.96364 13.9487 2.06818C14.0047 2.17727 14.014 2.3 13.9767 2.41818C13.9347 2.53182 13.8507 2.62727 13.7433 2.67727L8.04533 5.45455C8.04533 5.45455 8.036 5.45909 8.03133 5.45909C7.70933 5.60455 7.35466 5.67727 7 5.67273C6.64533 5.67273 6.29066 5.60455 5.96866 5.45909C5.96866 5.45909 5.95933 5.45455 5.95466 5.45455L0.256664 2.67727C0.149331 2.62727 0.0653308 2.53182 0.0233308 2.41818C-0.0140025 2.3 -0.00466921 2.17727 0.0513308 2.06818C0.102664 1.96364 0.200664 1.88182 0.317331 1.84091C0.438664 1.80455 0.564664 1.81364 0.676664 1.86818L6.37 4.63636C6.566 4.72727 6.78066 4.76818 7 4.76364C7.21933 4.76364 7.434 4.72727 7.63 4.63636L13.3233 1.86818Z" fill="#2E723D"/>
</g>
<defs>
<clipPath id="clip0_7_113">
<rect width="14" height="10" fill="white"/>
</clipPath>
</defs>
</svg>
