<svg width="62" height="47" viewBox="0 0 62 47" fill="none" xmlns="http://www.w3.org/2000/svg">
<g clip-path="url(#clip0_67_9)">
<path d="M5.41432 32.26H18.7543C19.2143 32.26 19.5243 32.26 19.5843 32.2C19.6943 32.11 19.3843 32.29 19.3543 32.17V32.11L18.8143 30.17C18.8143 30.11 18.7243 30.06 18.6143 30L18.5543 29.97C18.2643 29.83 17.8643 29.77 17.3843 29.77H10.4143C9.64432 29.77 9.10432 29.68 8.58432 29.37C8.04432 29 7.69432 28.48 7.47432 27.63L4.16432 15.89V15.83C4.10432 15.63 3.85432 15.49 3.53432 15.43C3.36432 15.4 3.19432 15.4 3.02432 15.43C2.91432 15.43 2.79432 15.46 2.71432 15.52L2.68432 15.55C2.68432 15.55 2.62432 15.61 2.65432 15.66L4.71432 31.06C4.74432 31.43 4.91432 31.77 5.11432 32.03C5.25432 32.17 5.37432 32.26 5.42432 32.26H5.41432ZM29.7743 4.03V2.49H28.4643C27.7743 2.49 27.2343 1.92 27.2343 1.23C27.2343 0.54 27.7743 0 28.4643 0H33.6043C34.2943 0 34.8343 0.54 34.8343 1.23C34.8343 1.92 34.2943 2.49 33.6043 2.49H32.2643V4.03C35.3443 4.34 38.1143 5.69 40.2043 7.74C42.2843 9.8 43.6843 12.57 44.0043 15.65H48.2343C48.9243 15.65 49.5243 15.91 49.9443 16.36C50.4043 16.79 50.6843 17.42 50.6843 18.07V20.61C50.6843 21.27 50.3943 21.9 49.9443 22.32C49.5143 22.78 48.9143 23.03 48.2343 23.03H34.8943V38.94C34.8943 39 35.3843 39.28 35.8943 39.57C36.4943 39.91 37.1243 40.28 37.6343 40.77C37.6643 40.8 37.6643 40.83 37.6943 40.86C38.2343 41.4 38.5843 42.03 38.7243 42.66C38.8943 43.26 38.8943 43.86 38.6943 44.4C38.4943 45 38.0943 45.51 37.5243 45.86C37.0343 46.15 36.4143 46.32 35.6943 46.32H26.3843C25.6743 46.32 25.0443 46.15 24.5543 45.86C23.9843 45.52 23.5843 45 23.3843 44.4C23.1843 43.86 23.1843 43.26 23.3243 42.66C23.4943 42 23.8643 41.35 24.4343 40.77C24.9443 40.28 25.5743 39.91 26.1443 39.57C26.6843 39.28 27.1743 39 27.1743 38.94V23.03H13.8143C13.1543 23.03 12.5543 22.77 12.1343 22.32H12.1043C11.6743 21.89 11.3943 21.29 11.3943 20.61V18.07C11.3943 17.41 11.6843 16.78 12.1043 16.36C12.1643 16.3 12.1943 16.27 12.2143 16.27C12.6443 15.87 13.2143 15.64 13.8143 15.64H18.0743C18.3843 12.55 19.7843 9.78 21.8743 7.73C23.9543 5.67 26.7243 4.33 29.7843 4.02L29.7743 4.03ZM29.6343 23.06V38.97C29.6343 40.48 28.5443 41.08 27.3743 41.74C26.9443 42 26.4843 42.25 26.1743 42.54C25.9143 42.8 25.7743 43.05 25.7143 43.28C25.6843 43.42 25.6843 43.54 25.7143 43.62C25.7143 43.68 25.7443 43.71 25.8043 43.76C25.9143 43.82 26.1143 43.85 26.3743 43.85H35.6843C35.9443 43.85 36.1443 43.82 36.2543 43.76C36.2843 43.7 36.3443 43.67 36.3443 43.62C36.3743 43.53 36.3743 43.42 36.3443 43.28C36.2843 43.05 36.1443 42.82 35.9443 42.59C35.9143 42.59 35.8843 42.56 35.8843 42.53C35.5743 42.24 35.1143 41.99 34.6843 41.73C33.5143 41.07 32.4043 40.47 32.4043 38.96V23.05H29.6343V23.06ZM45.3143 34.75L42.6843 45.41C42.5143 46.07 41.8543 46.47 41.1743 46.32C40.5143 46.15 40.1143 45.46 40.2843 44.81L42.7643 34.72C42.0243 34.66 41.4243 34.52 40.9643 34.15C40.2243 33.58 39.9943 32.78 40.3043 31.55L40.3343 31.49L40.8443 29.52C41.0443 28.75 41.5843 28.18 42.3543 27.78C42.3843 27.78 42.4143 27.75 42.4143 27.75C43.0443 27.46 43.8143 27.29 44.6743 27.29H52.1243C52.1243 27.29 52.1543 27.2 52.2143 26.98L55.4943 15.27C55.8043 13.98 56.8943 13.24 58.0643 13.01C58.4943 12.92 58.9543 12.92 59.3743 12.98C59.8343 13.04 60.2643 13.21 60.6343 13.44C61.4943 13.95 62.0043 14.81 61.8643 15.98L59.8043 31.38C59.6943 32.24 59.3143 33.04 58.8043 33.61C58.6643 33.81 58.4643 34.01 58.2643 34.15L60.6643 44.84C60.8043 45.53 60.4043 46.18 59.7243 46.33C59.0643 46.47 58.4143 46.04 58.2643 45.39L55.8943 34.76H45.3043L45.3143 34.75ZM43.3143 32.26H56.6543C56.7143 32.26 56.8243 32.17 56.9443 32.03C57.1743 31.77 57.3443 31.43 57.3743 31.06L59.4343 15.66C59.4643 15.6 59.4343 15.55 59.3743 15.52C59.2843 15.46 59.1743 15.43 59.0643 15.43C58.8943 15.4 58.7243 15.4 58.5543 15.43C58.2443 15.49 57.9843 15.63 57.9243 15.83V15.89L54.6143 27.63C54.3843 28.49 54.0443 29 53.5043 29.37C52.9943 29.68 52.4143 29.77 51.6743 29.77H44.7043C44.2143 29.77 43.8143 29.83 43.5343 29.97L43.4743 30C43.3643 30.06 43.2743 30.11 43.2443 30.17L42.7343 32.11V32.17C42.7043 32.28 42.3943 32.11 42.5043 32.2C42.5643 32.26 42.8743 32.26 43.3343 32.26H43.3143ZM48.2243 18.12H13.8443V20.61H48.2243V18.12ZM41.5143 15.66C41.2043 13.26 40.1143 11.12 38.4543 9.52C36.5443 7.63 33.9143 6.46 31.0343 6.46C28.1543 6.46 25.4943 7.63 23.6143 9.52C21.9543 11.12 20.8443 13.26 20.5343 15.66H41.5243H41.5143ZM19.2943 34.72L21.7743 44.81C21.9443 45.47 21.5443 46.15 20.8643 46.32C20.2043 46.46 19.5543 46.06 19.3843 45.41L16.7543 34.75H6.15432L3.78432 45.38C3.64432 46.04 2.98432 46.47 2.32432 46.32C1.63432 46.18 1.23432 45.52 1.38432 44.83L3.78432 34.14C3.58432 34 3.38432 33.8 3.21432 33.6C2.72432 33.03 2.35432 32.23 2.24432 31.37L0.184316 15.97C0.0443164 14.83 0.524316 14 1.32432 13.48C1.35432 13.45 1.38432 13.42 1.41432 13.42C1.78432 13.19 2.21432 13.02 2.67432 12.96C3.10432 12.9 3.53432 12.9 3.98432 12.99C5.15432 13.22 6.24432 13.96 6.55432 15.25L9.83432 26.96C9.89432 27.19 9.89432 27.27 9.92432 27.27H17.3743C18.2343 27.27 19.0043 27.44 19.6043 27.73C19.6343 27.73 19.6643 27.76 19.6943 27.76C20.4643 28.16 21.0043 28.73 21.2043 29.5L21.7143 31.47L21.7443 31.53C22.0543 32.76 21.8343 33.56 21.0843 34.13C20.5943 34.5 19.9943 34.64 19.2843 34.7L19.2943 34.72Z" fill="#FDFCF5"/>
</g>
<defs>
<clipPath id="clip0_67_9">
<rect width="61.73" height="46.34" fill="white" transform="translate(0.164551)"/>
</clipPath>
</defs>
</svg>
