<svg width="52" height="47" viewBox="0 0 52 47" fill="none" xmlns="http://www.w3.org/2000/svg">
<g clip-path="url(#clip0_67_12)">
<path d="M3.66991 26.21C2.89991 24.9 2.29991 23.55 1.80991 22.21C0.299907 17.86 0.159907 13.52 1.20991 9.80997C2.26991 6.00997 4.52991 2.88997 7.72991 1.05997C8.38991 0.689974 9.06991 0.369974 9.80991 0.119974L9.86991 0.0899737L9.92991 0.0599737C11.2399 -0.280026 12.6399 0.769974 13.8699 2.42997C15.0999 4.02997 16.2999 6.31997 17.0999 8.22997H46.8599C48.0899 8.22997 49.1199 8.68997 49.8599 9.42997C50.6299 10.2 51.0599 11.26 51.0599 12.43V32.29C51.0599 33.75 50.7699 34.8 50.0599 35.55C49.3199 36.32 48.2599 36.64 46.7499 36.64H36.4099C35.7199 36.64 35.1799 36.07 35.1799 35.38C35.1799 34.69 35.7199 34.15 36.4099 34.15H46.7499C47.5799 34.15 48.0599 34.06 48.2899 33.84C48.5199 33.61 48.5799 33.13 48.5799 32.3V12.58L32.9299 25.09C32.8699 25.12 32.8399 25.15 32.7899 25.18C31.7299 25.87 30.8799 26.24 29.9899 26.27C29.0199 26.27 28.1899 25.93 27.1299 25.13L15.2499 15.64L15.1399 15.7L13.4799 16.67C12.6499 17.13 12.1699 17.73 12.0199 18.38C11.8799 19.07 12.0499 19.87 12.5299 20.69L18.0699 30.38L18.1599 30.55C18.6199 31.35 19.2199 31.92 19.8699 32.12C20.5299 32.35 21.2699 32.23 22.0999 31.78L22.3899 31.61L23.7899 30.81C25.0799 30.07 26.4199 29.87 27.6699 30.18C28.8999 30.49 30.0099 31.29 30.9299 32.52C32.2399 34.23 33.7599 36.63 34.5899 38.63C35.3899 40.54 35.5599 42.26 34.5899 43.23L34.5599 43.29L34.4999 43.32C33.9299 43.81 33.2999 44.23 32.6399 44.61C29.4399 46.44 25.6099 46.81 21.7899 45.81C18.0799 44.81 14.3899 42.52 11.4199 38.98C10.5099 37.89 9.67991 36.69 8.90991 35.38L3.67991 26.21H3.66991ZM46.9299 10.72H17.7999C17.8899 11.41 17.7999 12.03 17.6299 12.66C17.4899 13.12 17.3199 13.52 17.0599 13.92L28.6499 23.18C29.1899 23.61 29.5599 23.81 29.9099 23.78C30.2799 23.78 30.7399 23.55 31.4199 23.12L46.9299 10.72ZM15.1199 9.94997C15.1199 9.94997 15.1199 9.88997 15.0899 9.85997C15.0599 9.76997 15.0299 9.71997 14.9999 9.62997V9.59997C14.2299 7.73997 13.0599 5.45997 11.8899 3.90997C11.2599 3.04997 10.7199 2.44997 10.5199 2.44997C9.97991 2.64997 9.45991 2.90997 8.94991 3.18997C6.34991 4.67997 4.46991 7.29997 3.57991 10.45C2.66991 13.71 2.77991 17.54 4.14991 21.36C4.57991 22.56 5.11991 23.76 5.80991 24.96L11.0399 34.13C11.7299 35.33 12.4999 36.42 13.2999 37.39C15.9299 40.5 19.1499 42.53 22.4099 43.39C25.6099 44.25 28.8099 43.96 31.4099 42.45C31.9199 42.16 32.4099 41.82 32.8699 41.45C32.9599 41.28 32.6999 40.54 32.2999 39.56C31.5599 37.76 30.1899 35.56 28.9599 33.99V33.96C28.3899 33.22 27.7599 32.73 27.0799 32.56C26.4499 32.42 25.7399 32.53 25.0199 32.93L23.3399 33.9L23.0499 34.04H23.0199C21.6499 34.75 20.3399 34.84 19.1399 34.44C17.9099 34.04 16.8799 33.15 16.1099 31.9L16.0199 31.73L10.3899 21.9C9.58991 20.56 9.32991 19.13 9.61991 17.84C9.90991 16.5 10.7599 15.33 12.2499 14.5L13.9299 13.53C14.6399 13.13 15.0999 12.59 15.2699 11.96C15.4399 11.36 15.4099 10.67 15.1299 9.92997L15.1199 9.94997Z" fill="#FDFCF5"/>
</g>
<defs>
<clipPath id="clip0_67_12">
<rect width="50.52" height="46.35" fill="white" transform="translate(0.529785)"/>
</clipPath>
</defs>
</svg>
