<svg width="46" height="46" viewBox="0 0 46 46" fill="none" xmlns="http://www.w3.org/2000/svg">
<g clip-path="url(#clip0_67_2)">
<path d="M38.4501 45.3C38.3901 45.3 38.1301 45.28 38.0701 45.28C35.8101 44.96 33.8001 42.18 31.6901 39.23C31.0201 38.3 30.3701 37.39 29.7601 36.65C27.9901 34.5 25.5601 31.46 23.9801 32.13C21.3101 33.27 17.7301 31.44 12.9901 26.45C8.57006 21.8 -1.21994 4.1 0.130063 0.959998C0.590063 -0.130002 1.85006 -0.410002 3.24006 0.729998L39.9301 37.58C42.0001 39.66 42.7101 41.51 42.0501 43.1C41.3801 44.71 39.5201 45.29 38.4401 45.3H38.4501ZM24.4301 29.45C27.1701 29.45 29.6001 32.4 31.7501 35.01C32.3901 35.79 33.0801 36.74 33.7801 37.72C35.1601 39.64 37.2501 42.56 38.4301 42.72H38.4501C38.8401 42.72 39.5401 42.46 39.6801 42.11C39.8301 41.74 39.5101 40.81 38.1101 39.4L3.18006 4.32C5.07006 9.42 10.6801 20.29 14.8501 24.67C19.1601 29.2 21.3901 29.87 22.3401 29.87C22.5701 29.87 22.7701 29.83 22.9701 29.75C23.4401 29.55 23.9301 29.45 24.4301 29.45Z" fill="#FDFCF5"/>
<path d="M31.9802 15.8899L41.1302 5.16995C41.5602 4.65995 41.5002 3.88995 40.9902 3.45995C40.4802 3.02995 39.7102 3.08995 39.2802 3.59995L30.1302 14.3199C29.7002 14.8299 29.7602 15.5999 30.2702 16.0299C30.7802 16.4599 31.5502 16.3999 31.9802 15.8899Z" fill="#FDFCF5"/>
<path d="M36.1802 2.72003C37.7502 1.20003 35.8002 -0.63997 34.2102 0.92003L27.1402 8.60003C25.3102 10.59 24.7602 13.45 25.6402 15.98L24.1602 17.54C22.9602 18.84 24.8202 20.69 26.0602 19.41L28.1702 17.2C28.5602 16.79 28.6602 16.18 28.4002 15.67C27.5202 13.93 27.8002 11.82 29.1002 10.41L36.1702 2.74003L36.1802 2.72003Z" fill="#FDFCF5"/>
<path d="M2.20009 43.74C2.89009 45.4 4.81009 46 5.94009 46C6.00009 46 6.28009 45.98 6.35009 45.97C8.27009 45.69 13.4301 40.14 18.1701 34.73C19.2201 33.39 17.0601 31.76 15.9401 33.2C11.3501 38.4 7.19009 42.89 5.96009 43.33L5.93009 44.66V43.33C5.52009 43.33 4.80009 43.07 4.65009 42.71C4.49009 42.33 4.82009 41.36 6.27009 39.89L14.2001 31.63C15.3901 30.38 13.6101 28.59 12.3801 29.67L4.36009 38.02C2.24009 40.18 1.51009 42.1 2.19009 43.73L2.20009 43.74Z" fill="#FDFCF5"/>
<path d="M28.9802 22.26C29.6202 21.54 29.8002 21.27 30.4602 20.54C31.1302 20.74 31.8302 20.84 32.5502 20.84C34.5802 20.84 36.5302 19.99 37.9002 18.51L44.9902 10.81C46.5302 9.05 44.4502 7.42 43.0302 9.01L43.0102 9.03L35.9402 16.7C34.6302 18.12 32.4202 18.56 30.6302 17.76C30.1002 17.53 29.4902 17.65 29.1102 18.07C28.2602 18.99 27.8902 19.47 27.0802 20.39C26.0902 21.62 27.8602 23.39 28.9902 22.26H28.9802Z" fill="#FDFCF5"/>
</g>
<defs>
<clipPath id="clip0_67_2">
<rect width="45.53" height="46" fill="white"/>
</clipPath>
</defs>
</svg>
