<svg xmlns="http://www.w3.org/2000/svg" width="252" height="112" viewBox="0 0 252 112" fill="none">
  <g clip-path="url(#clip0_21_270)">
    <path fill-rule="evenodd" clip-rule="evenodd" d="M100.757 46.8278C97.2867 41.8013 95.4216 35.8512 95.4216 29.7722C95.3566 13.318 108.802 0 125.393 0C133.373 0 141.072 3.13617 146.689 8.78558C147.622 9.6448 148.424 10.5685 149.226 11.5995C147.73 11.2344 146.19 11.1055 144.651 11.1055C144.347 11.041 143.978 11.1055 143.653 11.1055C133.373 1.2244 117.022 1.35328 106.937 11.4062C101.993 16.2608 99.1951 22.8769 99.1951 29.7507C99.1951 34.8416 100.692 39.8251 103.467 44.0568L100.735 46.8278H100.757Z" fill="#FDFCF5"/>
    <path fill-rule="evenodd" clip-rule="evenodd" d="M148.381 22.9628C148.316 24.1227 147.318 25.0464 146.147 24.982H146.082C144.846 24.9175 143.978 23.8865 144.043 22.705V22.6406C144.108 21.4806 145.149 20.557 146.342 20.6214C147.513 20.6858 148.446 21.7169 148.381 22.9628ZM97.6555 57.5251C97.4169 57.8259 97.4169 58.2555 97.6555 58.5132C97.894 58.7066 98.1543 58.7495 98.3928 58.6421C102.47 56.6874 108.737 54.1527 114.311 57.117C118.28 59.0717 122.617 60.1887 126.998 60.3606C139.815 60.2961 150.224 49.9854 150.224 37.2904C150.224 31.5121 151.395 27.216 156.535 24.2087C154.67 19.354 149.855 16.2823 144.651 16.5401C141.007 16.4112 137.537 17.8289 135 20.4066L97.6555 57.5466V57.5251Z" fill="#FDFCF5"/>
    <path fill-rule="evenodd" clip-rule="evenodd" d="M0 70.392H4.03373L14.1181 87.641L24.2241 70.392H28.2361V93.2259H24.2241V77.3303L14.812 93.2259H13.3807L4.03373 77.3303V93.2259H0V70.392Z" fill="#FDFCF5"/>
    <path d="M38.9492 70.392H34.8721V93.2259H38.9492V70.392Z" fill="#FDFCF5"/>
    <path fill-rule="evenodd" clip-rule="evenodd" d="M49.5975 89.789H58.1421C63.2818 89.789 65.8842 85.7936 65.8842 81.8197C65.8842 77.8458 63.2818 73.8504 58.1421 73.8504H49.5975V89.8105V89.789ZM58.3373 70.392C66.1445 70.4565 70.0481 76.1703 70.0481 81.7982C70.0481 87.4262 66.1445 93.1615 58.3373 93.2045H45.5854V70.3705H58.3373V70.392Z" fill="#FDFCF5"/>
    <path fill-rule="evenodd" clip-rule="evenodd" d="M95.3782 76.2347C93.5782 74.5807 89.8698 73.4637 86.5734 73.4637C83.277 73.4637 80.6963 74.5163 80.6963 76.8362C80.6963 81.9271 97.7204 77.8243 97.7204 87.018C97.7204 91.8726 92.4505 93.8918 86.877 93.8918C82.4095 93.8918 77.7035 92.603 75.3613 90.3905L77.6601 87.2543C79.4601 89.1016 83.6023 90.2616 87.2023 90.2616C90.542 90.2616 93.4481 89.2735 93.4481 87.018C93.4481 81.6693 76.424 85.7936 76.424 76.7717C76.424 71.8097 81.2601 69.8335 86.4649 69.8335C90.6722 69.8335 95.1396 71.1223 97.5469 73.0771L95.3782 76.2132V76.2347Z" fill="#FDFCF5"/>
    <path fill-rule="evenodd" clip-rule="evenodd" d="M103.489 70.392H107.458V84.2041C107.458 88.1995 111.101 90.0898 114.766 90.0898C118.431 90.0898 122.075 88.178 122.075 84.2041V70.392H126.043V84.2041C126.043 90.7127 120.405 94.0207 114.766 94.0207C109.128 94.0207 103.489 90.7127 103.489 84.2041V70.392Z" fill="#FDFCF5"/>
    <path fill-rule="evenodd" clip-rule="evenodd" d="M132.419 70.392H136.431L146.538 87.641L156.687 70.392H160.721V93.2259H156.687V77.3303L147.275 93.2259H145.778L136.431 77.3303V93.2259H132.419V70.392Z" fill="#FDFCF5"/>
    <path fill-rule="evenodd" clip-rule="evenodd" d="M167.335 70.392H171.369L181.453 87.641L191.559 70.392H195.636V93.2259H191.559V77.3303L182.212 93.2259H180.716L171.369 77.3303V93.2259H167.335V70.392Z" fill="#FDFCF5"/>
    <path fill-rule="evenodd" clip-rule="evenodd" d="M222.766 89.789V93.2259H202.272V70.392H222.593V73.8289H206.285V80.1013H220.359V83.5382H206.285V89.789H222.766Z" fill="#FDFCF5"/>
    <path fill-rule="evenodd" clip-rule="evenodd" d="M232.612 80.5738H241.352C244.019 80.5738 245.385 78.9198 245.385 77.2658C245.385 75.6118 244.019 73.8934 241.352 73.8934H232.612V80.5738ZM228.578 70.392H242.089C247.034 70.392 249.528 73.8289 249.528 77.2658C249.593 80.3376 247.489 83.0441 244.453 83.7745L252 93.2259H246.925L240.115 84.0107H232.612V93.2259H228.578V70.392Z" fill="#FDFCF5"/>
    <path d="M97.048 103.73H95.5516L93.2528 110.045H93.1878L90.954 103.73H89.3492L87.1155 110.045H87.0504L84.8167 103.73H83.3203L86.2263 111.893H87.8962L90.13 105.642L92.3637 111.893H93.9685L97.0047 103.73H97.048ZM98.3492 111.893H99.7806V103.73H98.3492V111.893ZM109.366 103.73H107.935V109.809L103.728 103.73H101.928V111.893H103.359V105.749H103.424L107.631 111.893H109.366V103.73ZM112.966 108.262H117.607V107.038H112.966V104.954H118.171V103.73H111.535V111.893H118.171V110.604H112.966V108.262ZM125.414 112C126.585 112 127.388 111.441 127.887 111.012L128.125 110.776L128.797 111.441C129.101 111.742 129.426 111.871 129.86 111.871H130.793V110.711H129.99C129.795 110.711 129.622 110.647 129.491 110.518L128.993 110.024L130.424 108.799L129.687 107.94L128.19 109.229L126.65 107.704C127.648 107.274 128.515 106.716 128.515 105.556C128.515 104.203 127.344 103.537 126.043 103.537C124.742 103.537 123.571 104.203 123.571 105.556C123.571 106.05 123.766 106.544 124.308 107.081L124.547 107.317C123.549 107.811 122.682 108.413 122.682 109.702C122.682 111.227 123.983 111.979 125.414 111.979V112ZM125.718 106.845L125.414 106.544C125.046 106.179 124.85 105.878 124.85 105.556C124.85 104.997 125.349 104.697 126.022 104.697C126.694 104.697 127.193 104.997 127.193 105.556C127.193 106.222 126.52 106.544 125.696 106.845H125.718ZM127.323 110.045L127.128 110.174C126.694 110.539 126.065 110.904 125.393 110.904C124.59 110.904 123.961 110.475 123.961 109.745C123.961 109.014 124.634 108.585 125.458 108.219L127.323 110.067V110.045ZM135.303 111.893H140.009C141.679 111.893 142.612 110.904 142.612 109.68C142.612 108.756 142.048 107.962 141.246 107.661V107.596C141.983 107.167 142.352 106.608 142.352 105.749C142.352 104.525 141.289 103.73 139.749 103.73H135.282V111.893H135.303ZM136.735 107.102V104.954H139.576C140.378 104.954 140.942 105.32 140.942 106.007C140.942 106.737 140.378 107.102 139.576 107.102H136.735ZM136.735 110.604V108.327H139.706C140.703 108.327 141.202 108.821 141.202 109.487C141.202 110.11 140.769 110.582 139.771 110.582H136.735V110.604ZM145.648 108.262H150.289V107.038H145.648V104.954H150.853V103.73H144.217V111.893H150.853V110.604H145.648V108.262ZM154.128 108.262H158.769V107.038H154.128V104.954H159.332V103.73H152.696V111.893H159.332V110.604H154.128V108.262ZM166.944 111.893H168.549L166.684 108.692C167.855 108.456 168.614 107.596 168.614 106.243C168.614 104.654 167.443 103.73 165.817 103.73H161.176V111.893H162.607V108.821H165.144L166.944 111.893ZM162.607 107.596V104.954H165.817C166.684 104.954 167.183 105.513 167.183 106.243C167.183 107.038 166.684 107.596 165.817 107.596H162.607Z" fill="#FDFCF5"/>
    <path d="M78.5277 107.102H0V108.52H78.5277V107.102Z" fill="#FDFCF5"/>
    <path d="M252 107.102H173.472V108.52H252V107.102Z" fill="#FDFCF5"/>
  </g>
  <defs>
    <clipPath id="clip0_21_270">
      <rect width="252" height="112" fill="white"/>
    </clipPath>
  </defs>
</svg>