<svg width="13" height="13" viewBox="0 0 13 13" fill="none" xmlns="http://www.w3.org/2000/svg">
    <g clip-path="url(#clip0_7_109)">
        <path
            d="M10.2795 8.0531C10.013 7.77599 9.69147 7.62783 9.35075 7.62783C9.01003 7.62783 8.68855 7.77324 8.41103 8.05036L7.54275 8.91463C7.47131 8.87622 7.39987 8.84055 7.33118 8.80488C7.23226 8.7555 7.13884 8.70885 7.05916 8.65946C6.24583 8.14365 5.50669 7.47144 4.79778 6.60168C4.45432 6.16817 4.22351 5.80326 4.0559 5.43285C4.28121 5.22708 4.49004 5.01307 4.69337 4.80729C4.77031 4.73046 4.84724 4.6509 4.92418 4.57407C5.5012 3.99789 5.5012 3.2516 4.92418 2.67542L4.17405 1.92639C4.08887 1.84133 4.00095 1.75353 3.91851 1.66573C3.75365 1.49562 3.58055 1.32002 3.40194 1.1554C3.13542 0.892005 2.81668 0.752075 2.48146 0.752075C2.14624 0.752075 1.82201 0.892005 1.54723 1.1554L1.54174 1.16089L0.607515 2.10198C0.255808 2.45318 0.0552241 2.8812 0.0112607 3.37781C-0.0546845 4.17898 0.181619 4.92527 0.362968 5.41365C0.808099 6.61265 1.47305 7.72386 2.46497 8.91463C3.66847 10.3496 5.11652 11.4827 6.77064 12.2812C7.40262 12.5802 8.24617 12.9342 9.18864 12.9945C9.24634 12.9973 9.30679 13 9.36174 13C9.99646 13 10.5295 12.7723 10.9472 12.3196C10.9499 12.3141 10.9554 12.3114 10.9582 12.3059C11.101 12.133 11.2659 11.9766 11.439 11.8093C11.5572 11.6968 11.6781 11.5788 11.7962 11.4553C12.0682 11.1727 12.2111 10.8435 12.2111 10.506C12.2111 10.1685 12.0655 9.83926 11.788 9.56489L10.2795 8.0531ZM11.2632 10.9422C11.2604 10.9422 11.2604 10.945 11.2632 10.9422C11.156 11.0575 11.0461 11.1617 10.9279 11.277C10.7493 11.4471 10.568 11.6254 10.3976 11.8257C10.1201 12.122 9.79313 12.262 9.36449 12.262C9.32327 12.262 9.27931 12.262 9.2381 12.2592C8.42202 12.2071 7.66365 11.8888 7.09488 11.6172C5.53967 10.8654 4.17405 9.79811 3.03925 8.44545C2.10227 7.31779 1.47579 6.27518 1.06089 5.15574C0.805351 4.47255 0.711929 3.94027 0.753144 3.43817C0.780621 3.11716 0.904269 2.85102 1.13233 2.62329L2.0693 1.68768C2.20394 1.56147 2.34682 1.49288 2.48695 1.49288C2.66006 1.49288 2.80019 1.59714 2.88812 1.68494C2.89087 1.68768 2.89362 1.69043 2.89636 1.69317C3.06397 1.84956 3.22334 2.01144 3.39095 2.18429C3.47613 2.27209 3.56406 2.35989 3.65199 2.45044L4.40211 3.19947C4.69337 3.4903 4.69337 3.75919 4.40211 4.05002C4.32243 4.12959 4.24549 4.20916 4.16581 4.28598C3.935 4.52194 3.71518 4.74144 3.47613 4.95545C3.47064 4.96094 3.46514 4.96368 3.46239 4.96917C3.22609 5.20513 3.27005 5.4356 3.31951 5.59199C3.32226 5.60022 3.32501 5.60845 3.32776 5.61668C3.52284 6.0886 3.79761 6.53308 4.21527 7.06262L4.21802 7.06537C4.97639 7.99823 5.77597 8.72531 6.65799 9.28229C6.77064 9.35362 6.88605 9.41124 6.99596 9.46612C7.09488 9.5155 7.1883 9.56215 7.26798 9.61153C7.27897 9.61702 7.28996 9.62525 7.30095 9.63074C7.39438 9.67738 7.4823 9.69933 7.57298 9.69933C7.80104 9.69933 7.94392 9.55666 7.99063 9.51002L8.93035 8.57167C9.02377 8.47838 9.17215 8.36589 9.34526 8.36589C9.51836 8.36589 9.65575 8.47289 9.74093 8.56618L9.74642 8.57167L11.2604 10.0835C11.5434 10.3633 11.5434 10.6514 11.2632 10.9422Z"
            fill="#2E723D" />
        <path
            d="M7.02619 3.09245C7.74609 3.21318 8.40005 3.5534 8.92211 4.0747C9.44418 4.59601 9.78215 5.24901 9.9058 5.96787C9.93602 6.14895 10.0926 6.27516 10.2712 6.27516C10.2932 6.27516 10.3125 6.27242 10.3344 6.26968C10.5378 6.23675 10.6724 6.04469 10.6394 5.84166C10.4911 4.9719 10.0789 4.17896 9.44968 3.55065C8.82045 2.92234 8.02636 2.51079 7.15533 2.36262C6.952 2.3297 6.76241 2.46414 6.72669 2.66443C6.69097 2.86472 6.82286 3.05953 7.02619 3.09245Z"
            fill="#2E723D" />
        <path
            d="M12.9942 5.73465C12.7497 4.30243 12.0737 2.99916 11.0351 1.96204C9.99647 0.924914 8.69131 0.24996 7.257 0.00576904C7.05642 -0.0298993 6.86682 0.107287 6.8311 0.307578C6.79813 0.510613 6.93277 0.699929 7.1361 0.735597C8.41654 0.952351 9.58432 1.55871 10.513 2.48334C11.4418 3.41072 12.0463 4.5768 12.2633 5.85537C12.2936 6.03646 12.4502 6.16267 12.6288 6.16267C12.6508 6.16267 12.67 6.15992 12.692 6.15718C12.8926 6.127 13.03 5.93494 12.9942 5.73465Z"
            fill="#2E723D" />
    </g>
    <defs>
        <clipPath id="clip0_7_109">
            <rect width="13" height="13" fill="white" />
        </clipPath>
    </defs>
</svg>