<svg width="14" height="18" viewBox="0 0 14 18" fill="none" xmlns="http://www.w3.org/2000/svg">
<g clip-path="url(#clip0_7_106)">
<path d="M12.7441 3.12961C11.4229 1.14082 9.32917 0 7.00018 0C4.67118 0 2.57742 1.14082 1.2566 3.12961C-0.0581244 5.10855 -0.361627 7.61344 0.442757 9.82687C0.658048 10.4312 1.00008 11.0183 1.45702 11.5689L6.53951 17.7785C6.65443 17.9191 6.82274 18 7.00018 18C7.17761 18 7.34593 17.9191 7.46084 17.7785L12.542 11.5703C13.0009 11.0169 13.3426 10.4302 13.5559 9.83074C14.362 7.61344 14.0585 5.1082 12.7441 3.12961ZM12.423 9.38988C12.2584 9.85254 11.9897 10.3099 11.625 10.7497C11.624 10.7508 11.623 10.7518 11.6223 10.7532L7.00051 16.4L2.37598 10.7497C2.01131 10.3103 1.74261 9.85289 1.57667 9.38602C0.911192 7.55543 1.16366 5.48438 2.25228 3.84574C3.34428 2.20184 5.07506 1.25895 7.00085 1.25895C8.92664 1.25895 10.6571 2.20184 11.7491 3.84574C12.8377 5.48438 13.0905 7.55578 12.4233 9.39023L12.423 9.38988Z" fill="#2E723D"/>
<path d="M7.00017 3.73425C5.13183 3.73425 3.61195 5.31523 3.61195 7.25867C3.61195 9.2021 5.13183 10.7831 7.00017 10.7831C8.8685 10.7831 10.3884 9.2021 10.3884 7.25867C10.3884 5.31523 8.86816 3.73425 7.00017 3.73425ZM7.00017 9.52449C5.799 9.52449 4.82191 8.50812 4.82191 7.25867C4.82191 6.00921 5.799 4.99285 7.00017 4.99285C8.20134 4.99285 9.17843 6.00921 9.17843 7.25867C9.17843 8.50812 8.20134 9.52449 7.00017 9.52449Z" fill="#2E723D"/>
</g>
<defs>
<clipPath id="clip0_7_106">
<rect width="14" height="18" fill="white"/>
</clipPath>
</defs>
</svg>
