<svg width="12" height="12" viewBox="0 0 12 12" fill="none" xmlns="http://www.w3.org/2000/svg">
    <g clip-path="url(#clip0_7_117)">
        <path
            d="M6 0C2.685 0 0 2.685 0 6C0 9.315 2.685 12 6 12C9.315 12 12 9.315 12 6C11.995 2.69 9.31 0 6 0ZM6 11C3.24 11 1 8.76 1 6C1 3.24 3.24 1 6 1C8.76 1 11 3.24 11 6C11 8.76 8.76 10.995 6 11Z"
            fill="#2E723D" />
        <path
            d="M8.755 7.07L6.5 5.715V3C6.5 2.725 6.275 2.5 6 2.5C5.725 2.5 5.5 2.725 5.5 3V6C5.505 6.175 5.595 6.335 5.74 6.43L8.24 7.93C8.475 8.075 8.785 8.005 8.93 7.77C9.075 7.535 9.005 7.225 8.77 7.08C8.765 7.08 8.76 7.075 8.755 7.07Z"
            fill="#2E723D" />
    </g>
    <defs>
        <clipPath id="clip0_7_117">
            <rect width="12" height="12" fill="white" />
        </clipPath>
    </defs>
</svg>